# xmcd
#
# Track frame offsets: 
#        150
#        6692
#        21090
#        46086
#        59753
#        78160
#        93167
#        120478
#        137195
#        156085
#        168240
#        193409
#        207979
#        220914
#
# Disc length: 3250 seconds
#
# Revision: 0
# Processed by: cddbd v1.5.1PL0 Copyright (c) Steve Scherf et al.
# Submitted via: ExactAudioCopy v0.95a2
#
DISCID=c30cb00e
DTITLE=Josh White Jr. - Heritage Of Music
DYEAR=2003
DGENRE=Blues
TTITLE0=Gonna Live The Life
TTITLE1=Evil Hearted Man
TTITLE2=One For My Baby (And One More For The Road)
TTITLE3=You Won't Let Me Go
TTITLE4=Backwater Blues
TTITLE5=I Believe I'll Make A Change
TTITLE6=Somewhere Between Right And Wrong
TTITLE7=Don't Go Looking For Trouble
TTITLE8=Strolling With Carol
TTITLE9=Hard Time Blues
TTITLE10=No Better (Greater) Love
TTITLE11=Southern Exposure Blues
TTITLE12=Close Your Eyes
TTITLE13=Cortelia Clark
EXTD=
EXTT0=
EXTT1=
EXTT2=
EXTT3=
EXTT4=
EXTT5=
EXTT6=
EXTT7=
EXTT8=
EXTT9=
EXTT10=
EXTT11=
EXTT12=
EXTT13=
PLAYORDER=
